<svg xmlns="http://www.w3.org/2000/svg" viewBox="0 0 48 48">
  <rect width="48" height="48" rx="8" fill="#005BA9"/>
  <mask id="peopleCutout" maskUnits="userSpaceOnUse">
    <rect width="48" height="48" fill="#ffffff"/>
    <g fill="#000000">
      <circle cx="19" cy="21" r="3.6"/>
      <path d="M11,34 L11,27 C11,23 27,23 27,27 L27,34 Z"/>
      <circle cx="28" cy="22.5" r="4.2"/>
      <path d="M19,35 L19,28 C19,24 37,24 37,28 L37,35 Z"/>
    </g>
  </mask>
  <path d="M4 12c0-2.2 1.8-4 4-4h10l4 4h18c2.2 0 4 1.8 4 4v20c0 2.2-1.8 4-4 4H8c-2.2 0-4-1.8-4-4V12z" fill="#ffffff" mask="url(#peopleCutout)"/>
</svg>
